<svg width="281" height="136" viewBox="0 0 281 136" fill="none" xmlns="http://www.w3.org/2000/svg">
<rect width="281" height="68" fill="white"/>
<rect y="68" width="281" height="68" fill="black"/>
<path d="M64.56 48V19.6H76.32C77.5467 19.6 78.6667 19.8533 79.68 20.36C80.72 20.8667 81.6133 21.56 82.36 22.44C83.1067 23.2933 83.6933 24.2533 84.12 25.32C84.5467 26.36 84.76 27.4267 84.76 28.52C84.76 30.0667 84.4133 31.5333 83.72 32.92C83.0533 34.28 82.1067 35.3867 80.88 36.24C79.6533 37.0933 78.2133 37.52 76.56 37.52H67.36V48H64.56ZM67.36 35.04H76.44C77.56 35.04 78.5333 34.7333 79.36 34.12C80.1867 33.5067 80.8267 32.7067 81.28 31.72C81.7333 30.7333 81.96 29.6667 81.96 28.52C81.96 27.3467 81.6933 26.2667 81.16 25.28C80.6267 24.2933 79.92 23.52 79.04 22.96C78.1867 22.3733 77.24 22.08 76.2 22.08H67.36V35.04ZM89.0028 18.8H91.7228V43.28C91.7228 44.32 91.9095 45 92.2828 45.32C92.6561 45.64 93.1095 45.8 93.6428 45.8C94.1228 45.8 94.6028 45.7467 95.0828 45.64C95.5628 45.5333 95.9761 45.4267 96.3228 45.32L96.8028 47.52C96.2961 47.7333 95.6695 47.9067 94.9228 48.04C94.2028 48.1733 93.5761 48.24 93.0428 48.24C91.8161 48.24 90.8295 47.88 90.0828 47.16C89.3628 46.44 89.0028 45.4533 89.0028 44.2V18.8ZM108.781 48.4C107.288 48.4 105.901 48.12 104.621 47.56C103.341 46.9733 102.235 46.1867 101.301 45.2C100.368 44.1867 99.6346 43.0267 99.1013 41.72C98.5946 40.4133 98.3413 39.0133 98.3413 37.52C98.3413 35.5733 98.7813 33.7867 99.6613 32.16C100.568 30.5333 101.808 29.24 103.381 28.28C104.955 27.2933 106.741 26.8 108.741 26.8C110.795 26.8 112.581 27.2933 114.101 28.28C115.648 29.2667 116.861 30.5733 117.741 32.2C118.621 33.8 119.061 35.56 119.061 37.48C119.061 37.6933 119.061 37.9067 119.061 38.12C119.061 38.3067 119.048 38.4533 119.021 38.56H101.181C101.315 40.0533 101.728 41.3867 102.421 42.56C103.141 43.7067 104.061 44.6267 105.181 45.32C106.328 45.9867 107.568 46.32 108.901 46.32C110.261 46.32 111.541 45.9733 112.741 45.28C113.968 44.5867 114.821 43.68 115.301 42.56L117.661 43.2C117.235 44.1867 116.581 45.08 115.701 45.88C114.821 46.68 113.781 47.3067 112.581 47.76C111.408 48.1867 110.141 48.4 108.781 48.4ZM101.101 36.6H116.501C116.395 35.08 115.981 33.7467 115.261 32.6C114.568 31.4533 113.648 30.56 112.501 29.92C111.381 29.2533 110.141 28.92 108.781 28.92C107.421 28.92 106.181 29.2533 105.061 29.92C103.941 30.56 103.021 31.4667 102.301 32.64C101.608 33.7867 101.208 35.1067 101.101 36.6ZM123.258 48V27.16H125.978V48H123.258ZM123.258 22.8V18.8H125.978V22.8H123.258ZM130.289 42C130.289 40.6933 130.662 39.5733 131.409 38.64C132.155 37.68 133.182 36.9467 134.489 36.44C135.822 35.9067 137.355 35.64 139.089 35.64C140.102 35.64 141.155 35.72 142.249 35.88C143.342 36.04 144.315 36.28 145.169 36.6V34.84C145.169 33.08 144.649 31.68 143.609 30.64C142.569 29.6 141.129 29.08 139.289 29.08C138.169 29.08 137.062 29.2933 135.969 29.72C134.902 30.12 133.782 30.72 132.609 31.52L131.569 29.6C132.929 28.6667 134.262 27.9733 135.569 27.52C136.875 27.04 138.209 26.8 139.569 26.8C142.129 26.8 144.155 27.5333 145.649 29C147.142 30.4667 147.889 32.4933 147.889 35.08V44.72C147.889 45.0933 147.969 45.3733 148.129 45.56C148.289 45.72 148.542 45.8133 148.889 45.84V48C148.595 48.0267 148.342 48.0533 148.129 48.08C147.915 48.1067 147.755 48.1067 147.649 48.08C146.982 48.0533 146.475 47.84 146.129 47.44C145.782 47.04 145.595 46.6133 145.569 46.16L145.529 44.64C144.595 45.84 143.382 46.7733 141.889 47.44C140.395 48.08 138.875 48.4 137.329 48.4C135.995 48.4 134.782 48.12 133.689 47.56C132.622 46.9733 131.782 46.2 131.169 45.24C130.582 44.2533 130.289 43.1733 130.289 42ZM144.249 43.6C144.542 43.2267 144.769 42.8667 144.929 42.52C145.089 42.1733 145.169 41.8667 145.169 41.6V38.56C144.262 38.2133 143.315 37.9467 142.329 37.76C141.369 37.5733 140.395 37.48 139.409 37.48C137.462 37.48 135.889 37.8667 134.689 38.64C133.489 39.4133 132.889 40.4667 132.889 41.8C132.889 42.5733 133.089 43.3067 133.489 44C133.889 44.6667 134.475 45.2267 135.249 45.68C136.022 46.1067 136.929 46.32 137.969 46.32C139.275 46.32 140.489 46.0667 141.609 45.56C142.755 45.0533 143.635 44.4 144.249 43.6ZM152.366 37.64C152.366 35.6667 152.766 33.8667 153.566 32.24C154.392 30.5867 155.526 29.2667 156.966 28.28C158.406 27.2933 160.046 26.8 161.886 26.8C163.619 26.8 165.166 27.2667 166.526 28.2C167.912 29.1067 168.992 30.2133 169.766 31.52V18.8H172.486V44.72C172.486 45.0933 172.566 45.3733 172.726 45.56C172.886 45.72 173.126 45.8133 173.446 45.84V48C172.912 48.08 172.499 48.1067 172.206 48.08C171.646 48.0533 171.152 47.8267 170.726 47.4C170.299 46.9733 170.086 46.5067 170.086 46V43.96C169.259 45.32 168.139 46.4 166.726 47.2C165.312 48 163.846 48.4 162.326 48.4C160.886 48.4 159.552 48.1067 158.326 47.52C157.126 46.9333 156.072 46.1333 155.166 45.12C154.286 44.1067 153.592 42.96 153.086 41.68C152.606 40.3733 152.366 39.0267 152.366 37.64ZM169.766 40.84V34.4C169.419 33.44 168.859 32.5733 168.086 31.8C167.312 31 166.432 30.3733 165.446 29.92C164.486 29.44 163.526 29.2 162.566 29.2C161.446 29.2 160.432 29.44 159.526 29.92C158.619 30.3733 157.832 31 157.166 31.8C156.526 32.6 156.032 33.5067 155.686 34.52C155.339 35.5333 155.166 36.5733 155.166 37.64C155.166 38.76 155.352 39.8267 155.726 40.84C156.126 41.8533 156.686 42.76 157.406 43.56C158.126 44.3333 158.952 44.9333 159.886 45.36C160.819 45.7867 161.832 46 162.926 46C163.619 46 164.339 45.8667 165.086 45.6C165.832 45.3333 166.539 44.9733 167.206 44.52C167.899 44.04 168.472 43.48 168.926 42.84C169.379 42.2 169.659 41.5333 169.766 40.84ZM187.648 48.4C186.155 48.4 184.768 48.12 183.488 47.56C182.208 46.9733 181.102 46.1867 180.168 45.2C179.235 44.1867 178.502 43.0267 177.968 41.72C177.462 40.4133 177.208 39.0133 177.208 37.52C177.208 35.5733 177.648 33.7867 178.528 32.16C179.435 30.5333 180.675 29.24 182.248 28.28C183.822 27.2933 185.608 26.8 187.608 26.8C189.662 26.8 191.448 27.2933 192.968 28.28C194.515 29.2667 195.728 30.5733 196.608 32.2C197.488 33.8 197.928 35.56 197.928 37.48C197.928 37.6933 197.928 37.9067 197.928 38.12C197.928 38.3067 197.915 38.4533 197.888 38.56H180.048C180.182 40.0533 180.595 41.3867 181.288 42.56C182.008 43.7067 182.928 44.6267 184.048 45.32C185.195 45.9867 186.435 46.32 187.768 46.32C189.128 46.32 190.408 45.9733 191.608 45.28C192.835 44.5867 193.688 43.68 194.168 42.56L196.528 43.2C196.102 44.1867 195.448 45.08 194.568 45.88C193.688 46.68 192.648 47.3067 191.448 47.76C190.275 48.1867 189.008 48.4 187.648 48.4ZM179.968 36.6H195.368C195.262 35.08 194.848 33.7467 194.128 32.6C193.435 31.4533 192.515 30.56 191.368 29.92C190.248 29.2533 189.008 28.92 187.648 28.92C186.288 28.92 185.048 29.2533 183.928 29.92C182.808 30.56 181.888 31.4667 181.168 32.64C180.475 33.7867 180.075 35.1067 179.968 36.6ZM208.965 48.4C207.258 48.4 205.672 48.12 204.205 47.56C202.738 47 201.472 46.1467 200.405 45L201.525 43.08C202.698 44.1733 203.872 44.9733 205.045 45.48C206.245 45.96 207.512 46.2 208.845 46.2C210.472 46.2 211.792 45.88 212.805 45.24C213.818 44.5733 214.325 43.6267 214.325 42.4C214.325 41.5733 214.072 40.9467 213.565 40.52C213.085 40.0667 212.378 39.7067 211.445 39.44C210.538 39.1467 209.445 38.84 208.165 38.52C206.725 38.12 205.512 37.7067 204.525 37.28C203.565 36.8267 202.832 36.2667 202.325 35.6C201.845 34.9067 201.605 34.0133 201.605 32.92C201.605 31.56 201.938 30.44 202.605 29.56C203.298 28.6533 204.232 27.9733 205.405 27.52C206.605 27.04 207.938 26.8 209.405 26.8C211.005 26.8 212.418 27.0533 213.645 27.56C214.872 28.0667 215.872 28.7733 216.645 29.68L215.325 31.52C214.578 30.6667 213.685 30.04 212.645 29.64C211.632 29.2133 210.498 29 209.245 29C208.392 29 207.578 29.12 206.805 29.36C206.032 29.5733 205.392 29.9467 204.885 30.48C204.405 30.9867 204.165 31.6933 204.165 32.6C204.165 33.3467 204.352 33.9333 204.725 34.36C205.098 34.76 205.658 35.1067 206.405 35.4C207.152 35.6667 208.072 35.96 209.165 36.28C210.738 36.7067 212.112 37.1467 213.285 37.6C214.458 38.0267 215.365 38.5867 216.005 39.28C216.645 39.9733 216.965 40.9467 216.965 42.2C216.965 44.1467 216.232 45.6667 214.765 46.76C213.298 47.8533 211.365 48.4 208.965 48.4Z" fill="black"/>
<path d="M20.56 116V87.6H32.32C33.5467 87.6 34.6667 87.8533 35.68 88.36C36.72 88.8667 37.6133 89.56 38.36 90.44C39.1067 91.2933 39.6933 92.2533 40.12 93.32C40.5467 94.36 40.76 95.4267 40.76 96.52C40.76 98.0667 40.4133 99.5333 39.72 100.92C39.0533 102.28 38.1067 103.387 36.88 104.24C35.6533 105.093 34.2133 105.52 32.56 105.52H23.36V116H20.56ZM23.36 103.04H32.44C33.56 103.04 34.5333 102.733 35.36 102.12C36.1867 101.507 36.8267 100.707 37.28 99.72C37.7333 98.7333 37.96 97.6667 37.96 96.52C37.96 95.3467 37.6933 94.2667 37.16 93.28C36.6267 92.2933 35.92 91.52 35.04 90.96C34.1867 90.3733 33.24 90.08 32.2 90.08H23.36V103.04ZM55.2828 97.56C53.4695 97.6133 51.8695 98.12 50.4828 99.08C49.1228 100.04 48.1628 101.36 47.6028 103.04V116H44.8828V95.16H47.4428V100.16C48.1628 98.6933 49.1095 97.5067 50.2828 96.6C51.4828 95.6933 52.7495 95.1867 54.0828 95.08C54.3495 95.0533 54.5761 95.04 54.7628 95.04C54.9761 95.04 55.1495 95.0533 55.2828 95.08V97.56ZM67.1222 116.4C65.6289 116.4 64.2422 116.12 62.9622 115.56C61.7089 114.973 60.6155 114.187 59.6822 113.2C58.7755 112.187 58.0689 111.04 57.5622 109.76C57.0555 108.453 56.8022 107.08 56.8022 105.64C56.8022 104.147 57.0555 102.76 57.5622 101.48C58.0689 100.173 58.7889 99.0267 59.7222 98.04C60.6555 97.0267 61.7489 96.24 63.0022 95.68C64.2822 95.0933 65.6689 94.8 67.1622 94.8C68.6555 94.8 70.0289 95.0933 71.2822 95.68C72.5355 96.24 73.6289 97.0267 74.5622 98.04C75.4955 99.0267 76.2155 100.173 76.7222 101.48C77.2289 102.76 77.4822 104.147 77.4822 105.64C77.4822 107.08 77.2289 108.453 76.7222 109.76C76.2155 111.04 75.4955 112.187 74.5622 113.2C73.6555 114.187 72.5622 114.973 71.2822 115.56C70.0289 116.12 68.6422 116.4 67.1222 116.4ZM59.5622 105.68C59.5622 107.227 59.8955 108.64 60.5622 109.92C61.2555 111.173 62.1755 112.173 63.3222 112.92C64.4689 113.64 65.7355 114 67.1222 114C68.5089 114 69.7755 113.627 70.9222 112.88C72.0689 112.133 72.9889 111.12 73.6822 109.84C74.3755 108.533 74.7222 107.12 74.7222 105.6C74.7222 104.053 74.3755 102.64 73.6822 101.36C72.9889 100.08 72.0689 99.0667 70.9222 98.32C69.7755 97.5733 68.5089 97.2 67.1222 97.2C65.7355 97.2 64.4689 97.5867 63.3222 98.36C62.2022 99.1333 61.2955 100.16 60.6022 101.44C59.9089 102.693 59.5622 104.107 59.5622 105.68ZM78.9112 123.24C78.0312 123.24 77.2046 123.12 76.4312 122.88C75.6312 122.64 74.9379 122.24 74.3512 121.68L75.6712 119.84C76.0712 120.213 76.5379 120.467 77.0712 120.6C77.5779 120.733 78.0846 120.8 78.5912 120.8C79.2312 120.8 79.8313 120.64 80.3913 120.32C80.9513 120 81.4046 119.547 81.7513 118.96C82.1246 118.4 82.3113 117.773 82.3113 117.08V95.16H85.0313V116.92C85.0313 118.147 84.7379 119.24 84.1513 120.2C83.5646 121.16 82.8046 121.907 81.8713 122.44C80.9379 122.973 79.9513 123.24 78.9112 123.24ZM82.3113 90.8V86.8H85.0313V90.8H82.3113ZM100.016 116.4C98.5223 116.4 97.1356 116.12 95.8556 115.56C94.5756 114.973 93.469 114.187 92.5356 113.2C91.6023 112.187 90.869 111.027 90.3356 109.72C89.829 108.413 89.5756 107.013 89.5756 105.52C89.5756 103.573 90.0156 101.787 90.8956 100.16C91.8023 98.5333 93.0423 97.24 94.6156 96.28C96.189 95.2933 97.9756 94.8 99.9756 94.8C102.029 94.8 103.816 95.2933 105.336 96.28C106.882 97.2667 108.096 98.5733 108.976 100.2C109.856 101.8 110.296 103.56 110.296 105.48C110.296 105.693 110.296 105.907 110.296 106.12C110.296 106.307 110.282 106.453 110.256 106.56H92.4156C92.549 108.053 92.9623 109.387 93.6556 110.56C94.3756 111.707 95.2956 112.627 96.4156 113.32C97.5623 113.987 98.8023 114.32 100.136 114.32C101.496 114.32 102.776 113.973 103.976 113.28C105.202 112.587 106.056 111.68 106.536 110.56L108.896 111.2C108.469 112.187 107.816 113.08 106.936 113.88C106.056 114.68 105.016 115.307 103.816 115.76C102.642 116.187 101.376 116.4 100.016 116.4ZM92.3356 104.6H107.736C107.629 103.08 107.216 101.747 106.496 100.6C105.802 99.4533 104.882 98.56 103.736 97.92C102.616 97.2533 101.376 96.92 100.016 96.92C98.6556 96.92 97.4156 97.2533 96.2956 97.92C95.1756 98.56 94.2556 99.4667 93.5356 100.64C92.8423 101.787 92.4423 103.107 92.3356 104.6ZM123.532 116.4C122.012 116.4 120.612 116.12 119.332 115.56C118.079 114.973 116.972 114.173 116.012 113.16C115.079 112.147 114.346 110.987 113.812 109.68C113.306 108.373 113.052 106.987 113.052 105.52C113.052 103.547 113.492 101.747 114.372 100.12C115.252 98.4933 116.479 97.2 118.052 96.24C119.626 95.28 121.439 94.8 123.492 94.8C125.439 94.8 127.159 95.2533 128.652 96.16C130.146 97.04 131.252 98.24 131.972 99.76L129.332 100.6C128.746 99.5333 127.919 98.7067 126.852 98.12C125.812 97.5067 124.652 97.2 123.372 97.2C121.986 97.2 120.719 97.56 119.572 98.28C118.426 99 117.506 99.9867 116.812 101.24C116.146 102.493 115.812 103.92 115.812 105.52C115.812 107.093 116.159 108.52 116.852 109.8C117.546 111.08 118.466 112.107 119.612 112.88C120.759 113.627 122.026 114 123.412 114C124.319 114 125.186 113.84 126.012 113.52C126.866 113.2 127.599 112.773 128.212 112.24C128.852 111.68 129.279 111.08 129.492 110.44L132.172 111.24C131.799 112.227 131.172 113.12 130.292 113.92C129.439 114.693 128.426 115.307 127.252 115.76C126.106 116.187 124.866 116.4 123.532 116.4ZM146.445 115C146.232 115.08 145.899 115.227 145.445 115.44C144.992 115.653 144.445 115.84 143.805 116C143.165 116.16 142.472 116.24 141.725 116.24C140.952 116.24 140.219 116.093 139.525 115.8C138.859 115.507 138.325 115.067 137.925 114.48C137.525 113.867 137.325 113.12 137.325 112.24V97.32H134.445V95.16H137.325V88.12H140.045V95.16H144.845V97.32H140.045V111.48C140.099 112.227 140.365 112.787 140.845 113.16C141.352 113.533 141.925 113.72 142.565 113.72C143.312 113.72 143.992 113.6 144.605 113.36C145.219 113.093 145.592 112.907 145.725 112.8L146.445 115ZM159.834 87.8H162.474L166.474 97.88L170.514 87.8H173.194L168.234 99.92L173.674 112.76L183.954 87.6H186.994L174.954 116H172.474L166.514 101.96L160.514 116H158.074L146.074 87.6H149.074L159.394 112.76L164.794 99.92L159.834 87.8ZM196.614 116.4C195.121 116.4 193.734 116.12 192.454 115.56C191.201 114.973 190.108 114.187 189.174 113.2C188.268 112.187 187.561 111.04 187.054 109.76C186.548 108.453 186.294 107.08 186.294 105.64C186.294 104.147 186.548 102.76 187.054 101.48C187.561 100.173 188.281 99.0267 189.214 98.04C190.148 97.0267 191.241 96.24 192.494 95.68C193.774 95.0933 195.161 94.8 196.654 94.8C198.148 94.8 199.521 95.0933 200.774 95.68C202.028 96.24 203.121 97.0267 204.054 98.04C204.988 99.0267 205.708 100.173 206.214 101.48C206.721 102.76 206.974 104.147 206.974 105.64C206.974 107.08 206.721 108.453 206.214 109.76C205.708 111.04 204.988 112.187 204.054 113.2C203.148 114.187 202.054 114.973 200.774 115.56C199.521 116.12 198.134 116.4 196.614 116.4ZM189.054 105.68C189.054 107.227 189.388 108.64 190.054 109.92C190.748 111.173 191.668 112.173 192.814 112.92C193.961 113.64 195.228 114 196.614 114C198.001 114 199.268 113.627 200.414 112.88C201.561 112.133 202.481 111.12 203.174 109.84C203.868 108.533 204.214 107.12 204.214 105.6C204.214 104.053 203.868 102.64 203.174 101.36C202.481 100.08 201.561 99.0667 200.414 98.32C199.268 97.5733 198.001 97.2 196.614 97.2C195.228 97.2 193.961 97.5867 192.814 98.36C191.694 99.1333 190.788 100.16 190.094 101.44C189.401 102.693 189.054 104.107 189.054 105.68ZM221.923 97.56C220.11 97.6133 218.51 98.12 217.123 99.08C215.763 100.04 214.803 101.36 214.243 103.04V116H211.523V95.16H214.083V100.16C214.803 98.6933 215.75 97.5067 216.923 96.6C218.123 95.6933 219.39 95.1867 220.723 95.08C220.99 95.0533 221.217 95.04 221.403 95.04C221.617 95.04 221.79 95.0533 221.923 95.08V97.56ZM240.427 116L232.707 105.32L228.267 109.48V116H225.547V86.8H228.267V106.56L240.067 95.2H243.067L234.547 103.72L243.387 116H240.427ZM253.598 116.4C251.891 116.4 250.304 116.12 248.838 115.56C247.371 115 246.104 114.147 245.038 113L246.158 111.08C247.331 112.173 248.504 112.973 249.678 113.48C250.878 113.96 252.144 114.2 253.478 114.2C255.104 114.2 256.424 113.88 257.438 113.24C258.451 112.573 258.958 111.627 258.958 110.4C258.958 109.573 258.704 108.947 258.198 108.52C257.718 108.067 257.011 107.707 256.078 107.44C255.171 107.147 254.078 106.84 252.798 106.52C251.358 106.12 250.144 105.707 249.158 105.28C248.198 104.827 247.464 104.267 246.958 103.6C246.478 102.907 246.238 102.013 246.238 100.92C246.238 99.56 246.571 98.44 247.238 97.56C247.931 96.6533 248.864 95.9733 250.038 95.52C251.238 95.04 252.571 94.8 254.038 94.8C255.638 94.8 257.051 95.0533 258.278 95.56C259.504 96.0667 260.504 96.7733 261.278 97.68L259.958 99.52C259.211 98.6667 258.318 98.04 257.278 97.64C256.264 97.2133 255.131 97 253.878 97C253.024 97 252.211 97.12 251.438 97.36C250.664 97.5733 250.024 97.9467 249.518 98.48C249.038 98.9867 248.798 99.6933 248.798 100.6C248.798 101.347 248.984 101.933 249.358 102.36C249.731 102.76 250.291 103.107 251.038 103.4C251.784 103.667 252.704 103.96 253.798 104.28C255.371 104.707 256.744 105.147 257.918 105.6C259.091 106.027 259.998 106.587 260.638 107.28C261.278 107.973 261.598 108.947 261.598 110.2C261.598 112.147 260.864 113.667 259.398 114.76C257.931 115.853 255.998 116.4 253.598 116.4Z" fill="white"/>
</svg>
